<svg width="77" height="66" viewBox="0 0 77 66" fill="none" xmlns="http://www.w3.org/2000/svg">
<g clip-path="url(#clip0_101_1185)">
<rect width="77" height="66" rx="8" fill="#4CA7E4"/>
<path d="M52 3.8543C52 10.2056 55.799 17.3543 50 17.3543C44.201 17.3543 31 10.2056 31 3.8543C31 -2.49697 35.701 -7.6457 41.5 -7.6457C47.299 -7.6457 56 -11.1455 52 3.8543Z" fill="#C1DFF6" fill-opacity="0.34"/>
<path d="M16.7301 52.3269C8.49994 62.9998 21.5169 74.1575 14.2101 74.1575C6.90326 74.1575 -9.73022 62.5975 -9.73022 52.3269C-9.73022 42.0564 -3.80688 33.7305 3.49994 33.7305C10.8068 33.7305 28.4999 28.0002 16.7301 52.3269Z" fill="#C1DFF6" fill-opacity="0.34"/>
<path d="M92.4603 39.1841C84.2302 49.857 97.2471 61.0147 89.9403 61.0147C82.6335 61.0147 66 49.4546 66 39.1841C66 28.9136 71.9233 20.5877 79.2302 20.5877C86.537 20.5877 104.23 14.8574 92.4603 39.1841Z" fill="#C1DFF6" fill-opacity="0.34"/>
<path d="M49 45.5002H32.125C30.3991 45.5002 29 44.1011 29 42.3752M29 42.3752V31.3547C29 27.6239 29 25.7585 29.9458 24.4482C30.259 24.0143 30.6398 23.6335 31.0737 23.3203C32.384 22.3745 34.2494 22.3745 37.9802 22.3745C39.3419 22.3745 41.0346 22.4546 42.3367 22.4592C43.3285 22.4627 43.8245 22.4645 44.5085 22.3612C45.1925 22.2579 45.3421 22.2111 45.6414 22.1174C46.7546 21.7691 47.7614 21.1193 49 20.5V32.3752C49 34.7049 49 35.8697 48.6194 36.7886C48.1119 38.0137 47.1386 38.9871 45.9134 39.4946C44.9946 39.8752 43.8297 39.8752 41.5 39.8752H31.5C30.1193 39.8752 29 40.9945 29 42.3752Z" stroke="#FEFEFE" stroke-width="1.5" stroke-linecap="round" stroke-linejoin="round"/>
<path d="M46.5 39.25L46.5 45.5" stroke="#FEFEFE" stroke-width="1.5" stroke-linejoin="round"/>
<path d="M34 23L34 27.6125C34 28.5377 34 29.0002 34.2976 29.1796C34.3104 29.1874 34.3235 29.1946 34.3369 29.2014C34.647 29.3593 35.0516 29.1213 35.8608 28.6454C36.4657 28.2895 36.7681 28.1116 37.1019 28.1056C37.1173 28.1053 37.1327 28.1053 37.1481 28.1056C37.4819 28.1116 37.7843 28.2895 38.3892 28.6454C39.1984 29.1213 39.603 29.3593 39.9131 29.2014C39.9265 29.1946 39.9396 29.1874 39.9524 29.1796C40.25 29.0002 40.25 28.5377 40.25 27.6125V23" stroke="#FEFEFE" stroke-width="1.5" stroke-linecap="round" stroke-linejoin="round"/>
</g>
<defs>
<clipPath id="clip0_101_1185">
<rect width="77" height="66" rx="8" fill="white"/>
</clipPath>
</defs>
</svg>
