<svg width="77" height="66" viewBox="0 0 77 66" fill="none" xmlns="http://www.w3.org/2000/svg">
<g clip-path="url(#clip0_101_1177)">
<rect width="77" height="66" rx="8" fill="#4CA7E4"/>
<path d="M52 3.8543C52 10.2056 55.799 17.3543 50 17.3543C44.201 17.3543 31 10.2056 31 3.8543C31 -2.49697 35.701 -7.6457 41.5 -7.6457C47.299 -7.6457 56 -11.1455 52 3.8543Z" fill="#C1DFF6" fill-opacity="0.34"/>
<path d="M16.7301 52.3269C8.49994 62.9998 21.5169 74.1575 14.2101 74.1575C6.90326 74.1575 -9.73022 62.5975 -9.73022 52.3269C-9.73022 42.0564 -3.80688 33.7305 3.49994 33.7305C10.8068 33.7305 28.4999 28.0002 16.7301 52.3269Z" fill="#C1DFF6" fill-opacity="0.34"/>
<path d="M92.4603 39.1841C84.2302 49.857 97.2471 61.0147 89.9403 61.0147C82.6335 61.0147 66 49.4546 66 39.1841C66 28.9136 71.9233 20.5877 79.2302 20.5877C86.537 20.5877 104.23 14.8574 92.4603 39.1841Z" fill="#C1DFF6" fill-opacity="0.34"/>
<path d="M27.0737 29.25C28.6705 24.1786 33.4201 20.5 39.031 20.5C45.5287 20.5 50.8714 25.4333 51.5001 31.75L49 31.2412" stroke="#FEFEFE" stroke-width="1.5" stroke-linecap="round" stroke-linejoin="round"/>
<path d="M35.5144 29.5247L35.8574 30.1917H35.8574L35.5144 29.5247ZM36.9968 28.7624L36.6538 28.0954V28.0954L36.9968 28.7624ZM41.0032 28.7624L41.3462 28.0954V28.0954L41.0032 28.7624ZM42.4856 29.5247L42.1426 30.1917V30.1917L42.4856 29.5247ZM35.5144 33.9753L35.8574 33.3083H35.8574L35.5144 33.9753ZM36.9968 34.7376L36.6538 35.4046L36.6538 35.4046L36.9968 34.7376ZM41.0032 34.7376L41.3462 35.4046L41.3462 35.4046L41.0032 34.7376ZM42.4856 33.9753L42.1426 33.3083H42.1426L42.4856 33.9753ZM44.5 35.5C44.5 35.9142 44.8358 36.25 45.25 36.25C45.6642 36.25 46 35.9142 46 35.5H44.5ZM35.8574 30.1917L37.3398 29.4293L36.6538 28.0954L35.1714 28.8578L35.8574 30.1917ZM40.6602 29.4293L42.1426 30.1917L42.8286 28.8578L41.3462 28.0954L40.6602 29.4293ZM35.1714 34.6422L36.6538 35.4046L37.3398 34.0707L35.8574 33.3083L35.1714 34.6422ZM41.3462 35.4046L42.8286 34.6422L42.1426 33.3083L40.6602 34.0707L41.3462 35.4046ZM36.6538 35.4046C37.1363 35.6527 37.5409 35.8616 37.8909 36.0041C38.2538 36.1518 38.6079 36.25 39 36.25V34.75C38.8713 34.75 38.7179 34.7212 38.4564 34.6147C38.1821 34.5031 37.8456 34.3308 37.3398 34.0707L36.6538 35.4046ZM40.6602 34.0707C40.1544 34.3308 39.8179 34.5031 39.5436 34.6147C39.2821 34.7212 39.1287 34.75 39 34.75V36.25C39.3921 36.25 39.7462 36.1518 40.1091 36.0041C40.4591 35.8616 40.8637 35.6527 41.3462 35.4046L40.6602 34.0707ZM42.1426 30.1917C43.0882 30.678 43.7144 31.0026 44.1158 31.2966C44.5048 31.5815 44.5 31.7057 44.5 31.75H46C46 30.9907 45.5344 30.4762 45.002 30.0863C44.4819 29.7055 43.7259 29.3192 42.8286 28.8578L42.1426 30.1917ZM42.8286 34.6422C43.7259 34.1808 44.4819 33.7945 45.002 33.4137C45.5344 33.0238 46 32.5093 46 31.75H44.5C44.5 31.7943 44.5048 31.9185 44.1158 32.2034C43.7144 32.4974 43.0882 32.822 42.1426 33.3083L42.8286 34.6422ZM37.3398 29.4293C37.8456 29.1692 38.1821 28.9969 38.4564 28.8853C38.7179 28.7788 38.8713 28.75 39 28.75V27.25C38.6079 27.25 38.2538 27.3482 37.8909 27.4959C37.5409 27.6384 37.1363 27.8473 36.6538 28.0954L37.3398 29.4293ZM41.3462 28.0954C40.8637 27.8473 40.4591 27.6384 40.1091 27.4959C39.7462 27.3482 39.3921 27.25 39 27.25V28.75C39.1287 28.75 39.2821 28.7788 39.5436 28.8853C39.8179 28.9969 40.1544 29.1692 40.6602 29.4293L41.3462 28.0954ZM35.1714 28.8578C34.2741 29.3192 33.5181 29.7055 32.998 30.0863C32.4656 30.4762 32 30.9907 32 31.75H33.5C33.5 31.7057 33.4952 31.5815 33.8842 31.2966C34.2856 31.0026 34.9118 30.678 35.8574 30.1917L35.1714 28.8578ZM35.8574 33.3083C34.9118 32.822 34.2856 32.4974 33.8842 32.2034C33.4952 31.9185 33.5 31.7943 33.5 31.75H32C32 32.5093 32.4656 33.0238 32.998 33.4137C33.5181 33.7945 34.2741 34.1808 35.1714 34.6422L35.8574 33.3083ZM42 37.3686C42 37.3655 41.9994 37.4294 41.9065 37.5517C41.8155 37.6715 41.6553 37.8197 41.4046 37.9652C40.9045 38.2554 40.1025 38.5 39 38.5V40C40.3137 40 41.3867 39.7099 42.1576 39.2625C42.8841 38.8409 43.5 38.1719 43.5 37.3686H42ZM39 38.5C37.8975 38.5 37.0955 38.2554 36.5954 37.9652C36.3447 37.8197 36.1845 37.6715 36.0935 37.5517C36.0006 37.4294 36 37.3655 36 37.3686H34.5C34.5 38.1719 35.1159 38.8409 35.8424 39.2625C36.6133 39.7099 37.6863 40 39 40V38.5ZM43.5 37.3686V33.8392H42V37.3686H43.5ZM36 37.3686V33.8392H34.5V37.3686H36ZM44.5 31.75V35.5H46V31.75H44.5Z" fill="#FEFEFE"/>
<path d="M50.9263 36.75C49.3295 41.8214 44.5799 45.5 38.969 45.5C32.4713 45.5 27.1286 40.5667 26.4999 34.25L29 34.7588" stroke="#FEFEFE" stroke-width="1.5" stroke-linecap="round" stroke-linejoin="round"/>
</g>
<defs>
<clipPath id="clip0_101_1177">
<rect width="77" height="66" rx="8" fill="white"/>
</clipPath>
</defs>
</svg>
